PathFileType	4	(X/Y/Z)	C:/Users/beibeiliu/ov580/test_trc/User3\sequence.18_training_dense_left.trc
DataRate	CameraRate	NumFrames	NumMarkers	Units	OrigDataRate	OrigDataStartFrame	OrigNumFrames
120	120	21	19	mm	120	1	261
Frame#	Time	ThumbCMC			ThumbMCP			ThumbIP			ThumbTip			IndexMCP			IndexPIP			IndexTip			MiddleMCP			MiddlePIP			MiddleTip			RingMCP			RingPIP			RingTip			PinkyMCP			PinkyPIP			PinkyTip			BackHand1			BackHand2			BackHand3	
		X0	Y0	Z0	X1	Y1	Z1	X2	Y2	Z2	X3	Y3	Z3	X4	Y4	Z4	X5	Y5	Z5	X6	Y6	Z6	X7	Y7	Z7	X8	Y8	Z8	X9	Y9	Z9	X10	Y10	Z10	X11	Y11	Z11	X12	Y12	Z12	X13	Y13	Z13	X14	Y14	Z14	X15	Y15	Z15	X16	Y16	Z16	X17	Y17	Z17	X18	Y18	Z18	
0	0	-146.143	-45.2571	21.8249	-132.223	-56.654	-3.40758	-119.084	-64.981	-30.5806	-117.966	-73.8822	-56.5608	-162.69	-24.8544	-54.166	-156.648	-31.5392	-81.7442	-154.689	-49.694	-109.069	-184.378	-21.6043	-60.921	-184.969	-30.0134	-91.384	-186.13	-56.1749	-115.157	-202.779	-26.5955	-55.7483	-206.193	-31.2643	-79.4456	-209.369	-48.9692	-103.174	-224.797	-33.1163	-39.6426	-228.119	-34.9656	-59.2148	-227.725	-40.6282	-84.6064	-204.031	-16.4812	-3.2774	-206.361	-18.323	31.5075	-172.856	-16.7157	12.7543	
1	0.00833333	-148.333	-45.5656	18.8	-131.692	-56.0147	-5.18259	-124.865	-64.6659	-31.1871	-120.085	-75.0063	-56.4317	-163.743	-24.66	-56.3542	-159.053	-32.3254	-86.7748	-157.688	-51.2229	-109.956	-184.179	-21.8387	-64.3818	-184.384	-29.1994	-90.1427	-187.029	-56.7708	-115.776	-207.73	-25.766	-54.5058	-205.757	-31.5107	-80.5172	-209.349	-51.7079	-108.009	-223.09	-34.2261	-36.7609	-229.12	-35.6093	-65.3284	-231.711	-40.0477	-84.8855	-206.765	-17.8812	-0.567577	-205.741	-16.8039	27.9592	-172.438	-17.5644	9.99775	
2	0.0166667	-149.021	-46.7788	20.8448	-133.828	-56.6773	-2.21229	-121.862	-65.8473	-34.0822	-121.247	-74.6162	-51.7144	-158.606	-25.4579	-59.6483	-158.992	-31.8864	-84.3469	-153.394	-48.7171	-106.841	-186.275	-21.2449	-60.9379	-184.49	-29.9199	-90.8815	-183.673	-54.9417	-115.127	-202.385	-25.5953	-52.4506	-205.924	-33.1347	-84.4154	-209.989	-50.895	-106.89	-224.482	-32.6026	-38.2895	-229.468	-35.5826	-63.2577	-230.044	-41.9963	-84.5958	-207.358	-17.0087	-1.1194	-205.275	-18.4295	27.494	-174.093	-18.3478	12.8974	
3	0.025	-145.673	-45.7389	16.7091	-134.515	-56.1216	-4.82869	-123.046	-65.2231	-31.4524	-119.157	-74.6953	-49.9992	-161.261	-25.5879	-58.7273	-154.798	-33.0662	-87.2928	-158.721	-47.5718	-105.693	-183.729	-21.4081	-59.3797	-184.771	-30.8123	-92.4711	-186.408	-55.4814	-115.044	-201.849	-25.0542	-54.8907	-206.608	-32.0403	-83.0321	-207.706	-46.746	-103.396	-219.956	-33.5756	-36.6158	-224.941	-33.458	-62.4794	-230.435	-38.8126	-84.9051	-205.387	-17.5814	-3.97836	-208.944	-17.4968	26.5524	-172.405	-17.4799	10.1641	
4	0.0333333	-150.148	-45.9832	20.2621	-132.987	-55.4351	-6.55152	-119.87	-65.0297	-30.1758	-115.657	-74.13	-51.8194	-158.699	-24.6452	-55.4785	-156.553	-30.2572	-82.9515	-154.212	-46.5581	-106.241	-181.878	-20.429	-65.1069	-182.39	-32.5654	-94.1631	-183.859	-53.8295	-114.832	-206.77	-26.2071	-54.1037	-205.493	-32.3586	-84.538	-209.517	-50.6924	-106.244	-225.373	-33.0305	-39.1801	-224.029	-33.7238	-60.871	-230.579	-38.7472	-85.1578	-206.337	-16.1367	-3.17545	-203.425	-16.9088	25.2	-173.414	-18.27	9.99229	
5	0.0416667	-149.327	-45.1856	15.8708	-133.688	-54.5422	-5.91306	-121.827	-62.9747	-33.8018	-113.998	-73.014	-52.8107	-158.224	-25.2536	-54.8277	-160.049	-32.9591	-86.6707	-155.384	-47.346	-106.282	-186.196	-21.9021	-64.2888	-183.231	-30.8068	-92.3792	-187.028	-55.1723	-115.238	-207.438	-26.5354	-54.4543	-208.668	-33.2354	-84.2219	-211.105	-49.0168	-104.287	-223.172	-32.6392	-38.598	-224.791	-33.7927	-59.207	-231.017	-41.0343	-84.0994	-203.193	-17.3108	-0.01111	-205.962	-18.3785	26.9054	-170.287	-18.6081	11.0015	
6	0.05	-146.914	-44.5556	16.4711	-131.195	-54.3984	-6.51334	-122.575	-63.968	-29.0866	-115.372	-71.4258	-50.6954	-162.721	-25.3575	-59.7575	-156.534	-31.8752	-82.8386	-157.839	-47.4598	-106.265	-187.43	-21.815	-64.6836	-183.237	-29.4253	-90.1933	-185.27	-54.9809	-117.684	-202.943	-26.5843	-52.1896	-207.5	-32.1307	-81.3512	-207.441	-49.7749	-108.061	-225.9	-33.2197	-38.8465	-227.746	-34.899	-64.6109	-231.402	-40.7131	-85.6322	-202.501	-19.4817	0.201894	-207.703	-18.4722	28.7216	-173.838	-16.8873	12.5533	
7	0.0583333	-147.222	-44.2927	21.2877	-131.854	-54.5289	-3.23774	-118.009	-62.0632	-32.2871	-110.676	-71.1053	-50.0519	-161.597	-24.1152	-58.3967	-156.02	-33.2206	-87.0764	-158.365	-46.4526	-106.691	-185.997	-21.4656	-64.2298	-184.807	-29.3042	-90.5936	-182.353	-55.7647	-119.466	-203.157	-26.099	-53.3577	-210.318	-32.5343	-81.4073	-210.541	-47.9983	-104.522	-226.065	-32.057	-40.7834	-227.815	-34.6103	-60.5906	-231.959	-41.932	-87.7027	-208.19	-18.9073	0.42211	-207.812	-18.3629	26.96	-171.143	-15.7054	11.7221	
8	0.0666667	-147.65	-44.6915	17.8146	-133.006	-54.5053	-6.37407	-121.804	-62.4085	-30.4609	-112.356	-70.7546	-53.4101	-161.468	-23.8405	-56.2809	-157.047	-32.1469	-88.1414	-152.932	-49.3655	-110.161	-185.663	-20.6876	-61.0073	-187.865	-29.9038	-93.8852	-185.086	-51.845	-118.459	-205.918	-26.0493	-55.1514	-210.611	-32.1412	-81.1492	-208.331	-49.1171	-106.904	-227.258	-33.8284	-36.1487	-229.608	-34.7903	-59.0608	-235.883	-40.9795	-85.0117	-205.73	-19.2146	-1.56962	-208.459	-19.329	29.705	-173.225	-18.0276	12.1289	
9	0.075	-149.774	-44.4327	18.9921	-129.136	-55.3699	-5.50338	-116.246	-63.5379	-27.7998	-113.525	-73.0739	-48.8856	-160.402	-24.3451	-57.815	-158.991	-29.7641	-84.0021	-155.731	-45.2848	-109.015	-184.686	-20.6164	-63.6698	-183.916	-28.1295	-92.4901	-184.46	-49.4457	-118.194	-203.737	-26.1219	-56.5409	-212.849	-31.7453	-79.6467	-211.894	-48.4571	-105.252	-223.767	-35.0697	-35.9053	-233.113	-37.0141	-61.1089	-237.502	-42.0915	-82.9109	-208.763	-18.6996	-1.10812	-208.359	-17.9063	25.4632	-172.477	-17.3504	12.4332	
10	0.0833333	-147.696	-43.637	16.517	-131.845	-55.7135	-5.31024	-118.432	-65.3988	-29.9	-110.023	-74.7579	-50.6241	-162.793	-25.362	-59.3237	-155.745	-31.2976	-84.753	-155.416	-46.448	-110.755	-186.332	-21.3527	-65.6596	-184.855	-28.8446	-91.3678	-188.113	-48.6114	-118.538	-211.096	-28.5656	-54.4663	-213.747	-33.2092	-79.8304	-213.492	-48.6143	-107.063	-225.336	-36.3409	-36.6948	-234.942	-38.1722	-59.9958	-241.345	-43.4533	-81.0019	-208.941	-18.855	-1.14677	-208.028	-18.9605	24.0887	-174.972	-16.2969	10.8599	
11	0.0916667	-151.726	-45.9965	18.9604	-130.143	-58.2401	-3.5065	-117.761	-68.0697	-28.2446	-114.528	-77.587	-48.3346	-161.025	-25.9865	-59.6391	-155.362	-32.9673	-86.7849	-154.881	-44.597	-107.599	-186.401	-22.3706	-62.7978	-187.395	-29.9099	-93.2708	-186.985	-50.4247	-122.095	-210.099	-29.0989	-52.6873	-211.368	-34.0014	-79.2786	-217.046	-47.5173	-103.599	-226.402	-35.5249	-41.9936	-234.368	-39.5269	-57.4731	-247.095	-43.6068	-80.6921	-208.814	-16.9474	-3.08216	-210.355	-17.7412	26.2287	-172.098	-18.6185	8.93577	
12	0.1	-152.338	-45.6001	14.5211	-137.145	-60.3009	-5.70704	-119.307	-71.7638	-28.5745	-112.201	-80.8217	-47.9792	-160.365	-26.802	-60.7087	-153.596	-33.8036	-85.7474	-153.599	-45.5573	-106.561	-184.796	-23.4975	-64.9671	-187.007	-32.3623	-94.4135	-188.008	-49.5844	-118.948	-212.137	-29.4256	-54.4862	-210.897	-36.4978	-82.6658	-216.331	-51.3157	-104.699	-230.187	-37.1955	-37.1434	-237.211	-40.3109	-56.315	-247.152	-42.7544	-81.5047	-204.877	-19.1773	-4.79179	-207.865	-18.9928	28.3243	-174.542	-19.5985	11.3574	
13	0.108333	-151.379	-47.8795	18.2088	-133.652	-61.2744	-6.76963	-120.382	-71.5491	-31.0203	-113.975	-82.354	-50.1287	-165.318	-26.9729	-57.6609	-157.526	-33.2895	-83.8542	-155.291	-50.4622	-109.547	-187.222	-24.1977	-66.9147	-185.71	-34.9888	-94.0188	-185.79	-54.3155	-117.373	-209.783	-31.0814	-57.1974	-212.646	-39.2141	-79.2564	-214.463	-56.7685	-102.155	-228.614	-35.6939	-41.8083	-239.759	-41.2051	-61.6629	-246.12	-43.848	-81.6207	-206.602	-19.7627	-4.61144	-208.489	-17.6398	25.9748	-175.044	-17.4497	13.5035	
14	0.116667	-150.148	-46.21	17.3658	-135.873	-60.4959	-3.99545	-121.726	-71.6819	-28.959	-117.638	-81.1451	-49.5979	-166.489	-27.4508	-60.9069	-160.993	-36.3317	-85.7548	-158.129	-55.5056	-107.314	-186.693	-26.2608	-63.8744	-185.408	-38.9726	-92.2861	-188.113	-67.1915	-116.935	-209.786	-32.4393	-56.4078	-213.179	-44.1608	-81.3327	-212.726	-64.4468	-98.6437	-233.527	-36.2999	-40.4788	-240.292	-39.8928	-56.8518	-249.842	-44.4253	-82.9537	-211.257	-18.3375	-1.35881	-208.462	-19.9495	25.4146	-177.126	-17.488	10.7516	
15	0.125	-151.583	-46.7785	16.6959	-138.086	-60.2554	-7.71323	-123.149	-70.3215	-34.2717	-118.078	-81.8053	-49.0759	-165.625	-28.9744	-59.7769	-159.193	-41.1252	-86.3048	-162.652	-65.235	-106.823	-190.634	-28.019	-63.6182	-185.498	-46.8232	-93.9346	-186.938	-75.6624	-108.421	-211.87	-33.5056	-54.9951	-212.222	-48.0197	-79.661	-213.662	-74.9339	-93.6741	-234.637	-36.7499	-38.9258	-239.407	-40.3321	-58.7978	-247.203	-45.2503	-82.4196	-209.591	-19.4022	-4.57113	-209.712	-19.3261	26.0994	-175.837	-15.7298	8.04569	
16	0.133333	-151.564	-45.9775	17.7496	-136.723	-59.6693	-10.7691	-126.118	-69.8492	-32.645	-120.156	-79.7517	-55.3627	-167.776	-30.0086	-58.6334	-165.096	-48.2649	-87.4472	-164.327	-72.8443	-99.6101	-192.648	-30.7778	-62.8015	-190.617	-51.8551	-90.8892	-189.37	-86.0979	-97.2089	-209.036	-35.5151	-57.0057	-214.602	-54.5517	-80.6306	-211.34	-87.2357	-86.2637	-233.568	-36.9953	-40.6649	-240.387	-40.4536	-58.6874	-247.324	-47.1517	-80.7027	-210.742	-18.8704	-0.637793	-209.453	-17.4496	24.0242	-178.381	-15.8314	7.17702	
17	0.141667	-150.64	-45.825	15.6621	-139.195	-59.9418	-6.29206	-127.187	-70.352	-31.6768	-120.988	-80.5404	-54.1519	-165.435	-31.9992	-58.7961	-166.449	-54.5439	-85.6894	-165.865	-82.5175	-88.908	-191.281	-34.2046	-67.6453	-188.211	-57.9396	-87.4241	-190.456	-97.793	-78.9648	-212.451	-36.5227	-57.8868	-214.614	-57.5551	-77.8994	-204.277	-90.1873	-72.07	-231.015	-36.7159	-38.8332	-241.483	-41.4688	-62.0422	-246.192	-48.4577	-80.0339	-209.213	-18.0217	-4.0952	-212.183	-18.1809	23.375	-180.123	-16.6851	8.71705	
18	0.15	-150.69	-45.2931	14.2313	-140.858	-58.8576	-6.40465	-126.519	-70.1537	-36.0055	-127.101	-79.1574	-55.0802	-167.564	-34.9511	-58.5053	-165.092	-59.6008	-82.6552	-169.165	-90.3551	-74.5751	-190.824	-35.6826	-65.0573	-191.881	-68.9172	-82.1389	-190.19	-95.8458	-61.4726	-211.894	-38.5083	-56.2126	-214.284	-67.5605	-72.7436	-202.226	-93.2177	-50.8617	-231.472	-37.6425	-39.5997	-237.181	-42.4364	-64.5107	-241.153	-51.0353	-82.7017	-208.539	-18.8093	-2.93962	-212.457	-16.9145	25.9019	-180.945	-18.9242	9.27719	
19	0.158333	-153.471	-46.607	15.1053	-136.843	-59.1392	-7.77466	-127.553	-68.6255	-34.0153	-123.875	-78.7799	-55.8978	-170.238	-37.8422	-63.2166	-166.85	-63.3299	-78.6991	-169.018	-91.3641	-58.7196	-191.161	-40.8853	-67.514	-186.231	-72.5755	-75.3875	-187.533	-91.4988	-43.0299	-212.521	-44.1811	-59.4641	-209.821	-71.0026	-66.9039	-198.722	-87.9232	-36.4306	-231.63	-36.8855	-39.0821	-237.478	-42.1292	-62.7774	-240.191	-55.9976	-84.0383	-209.155	-16.3358	-5.92603	-210.177	-20.1135	27.1242	-174.81	-18.1235	10.0645	
20	0.166667	-155.325	-46.855	17.7372	-137.264	-57.4507	-10.5903	-126.548	-65.7342	-37.3545	-123.433	-75.6633	-59.0829	-168.58	-38.3221	-58.4372	-168.394	-72.0049	-71.2729	-168.719	-88.3554	-41.6469	-191.791	-43.4292	-62.9958	-184.568	-76.3153	-67.9359	-184.946	-83.7657	-28.1076	-209.795	-45.7793	-56.1227	-207.793	-78.838	-57.6678	-196.724	-82.4042	-28.1683	-228.98	-36.3868	-42.0363	-233.47	-43.1754	-65.404	-232.121	-56.5894	-86.1471	-208.868	-18.4289	-5.56947	-210.024	-19.3245	22.6739	-178.68	-17.4332	6.59528	
